<?xml version="1.0" encoding="UTF-8" standalone="no"?>
<!-- Created with Inkscape (http://www.inkscape.org/) -->

<svg
   xmlns:dc="http://purl.org/dc/elements/1.1/"
   xmlns:cc="http://creativecommons.org/ns#"
   xmlns:rdf="http://www.w3.org/1999/02/22-rdf-syntax-ns#"
   xmlns:svg="http://www.w3.org/2000/svg"
   xmlns="http://www.w3.org/2000/svg"
   xmlns:sodipodi="http://sodipodi.sourceforge.net/DTD/sodipodi-0.dtd"
   xmlns:inkscape="http://www.inkscape.org/namespaces/inkscape"
   width="256px"
   height="256px"
   viewBox="0 0 256 256"
   version="1.1"
   id="SVGRoot"
   inkscape:version="0.92.3 (2405546, 2018-03-11)"
   sodipodi:docname="shield.svg"
   inkscape:export-filename="/home/miles/Documents/CS492/Assignments/Images/shield.png"
   inkscape:export-xdpi="1000"
   inkscape:export-ydpi="1000">
  <sodipodi:namedview
     id="base"
     pagecolor="#ffffff"
     bordercolor="#666666"
     borderopacity="1.0"
     inkscape:pageopacity="0.0"
     inkscape:pageshadow="2"
     inkscape:zoom="2.8284271"
     inkscape:cx="134.06466"
     inkscape:cy="138.45806"
     inkscape:document-units="px"
     inkscape:current-layer="layer1"
     showgrid="true"
     inkscape:window-width="1374"
     inkscape:window-height="1061"
     inkscape:window-x="546"
     inkscape:window-y="19"
     inkscape:window-maximized="0"
     inkscape:grid-bbox="true"
     showguides="true">
    <inkscape:grid
       type="xygrid"
       id="grid2621" />
  </sodipodi:namedview>
  <defs
     id="defs2062" />
  <metadata
     id="metadata2065">
    <rdf:RDF>
      <cc:Work
         rdf:about="">
        <dc:format>image/svg+xml</dc:format>
        <dc:type
           rdf:resource="http://purl.org/dc/dcmitype/StillImage" />
        <dc:title></dc:title>
      </cc:Work>
    </rdf:RDF>
  </metadata>
  <g
     id="layer1"
     inkscape:groupmode="layer"
     inkscape:label="Layer 1">
    <path
       style="fill:#ffffff;stroke:#000000;stroke-width:3.64724398;stroke-linecap:butt;stroke-linejoin:miter;stroke-miterlimit:4;stroke-dasharray:none;stroke-opacity:1"
       d="M 125,251 200,186 240,76 H 200 L 225,41 125,46 25,41 50,76 H 15 l 35,105 z"
       id="path2623"
       inkscape:connector-curvature="0"
       sodipodi:nodetypes="ccccccccccc"
       inkscape:export-xdpi="1000"
       inkscape:export-ydpi="1000" />
    <path
       style="opacity:0;fill:#ffffff;fill-opacity:1;stroke:#000000;stroke-width:2.89133859;stroke-linecap:round;stroke-miterlimit:4;stroke-dasharray:none;stroke-opacity:1"
       d="m 95.298055,227.81945 -29.799831,-22.35137 -24.831113,-74.4924 -24.831114,-74.4924 7.555652,-2.518426 7.555651,-2.518426 -2.468428,-4.927456 -2.468428,-4.927456 1.860308,0.182076 c 1.023169,0.100143 23.298717,1.242809 49.501216,2.539258 l 47.640912,2.357181 47.99528,-2.361142 c 26.39741,-1.298627 48.67096,-2.436572 49.49678,-2.528766 l 1.5015,-0.167625 -2.45626,4.903172 -2.45626,4.903172 8.73293,2.177786 c 4.80312,1.197782 9.31561,2.331697 10.02775,2.519811 l 1.29482,0.342025 -24.75918,74.329326 c -13.61755,40.88113 -25.01895,74.59122 -25.33644,74.91132 -0.3175,0.32011 -13.86204,9.76673 -30.09898,20.99249 -16.23694,11.22577 -30.49713,21.10095 -31.68932,21.94485 l -2.16762,1.53437 z"
       id="path2625"
       inkscape:connector-curvature="0" />
  </g>
</svg>
