<?xml version="1.0" encoding="UTF-8" standalone="no"?>
<!-- Created with Inkscape (http://www.inkscape.org/) -->

<svg
   xmlns:dc="http://purl.org/dc/elements/1.1/"
   xmlns:cc="http://creativecommons.org/ns#"
   xmlns:rdf="http://www.w3.org/1999/02/22-rdf-syntax-ns#"
   xmlns:svg="http://www.w3.org/2000/svg"
   xmlns="http://www.w3.org/2000/svg"
   xmlns:sodipodi="http://sodipodi.sourceforge.net/DTD/sodipodi-0.dtd"
   xmlns:inkscape="http://www.inkscape.org/namespaces/inkscape"
   width="256px"
   height="256px"
   viewBox="0 0 256 256"
   version="1.1"
   id="SVGRoot"
   inkscape:export-filename="/home/miles/bitmap.png"
   inkscape:export-xdpi="1000"
   inkscape:export-ydpi="1000"
   inkscape:version="0.92.3 (2405546, 2018-03-11)"
   sodipodi:docname="sword.svg">
  <sodipodi:namedview
     id="base"
     pagecolor="#ffffff"
     bordercolor="#666666"
     borderopacity="1.0"
     inkscape:pageopacity="0.0"
     inkscape:pageshadow="2"
     inkscape:zoom="2"
     inkscape:cx="101.57822"
     inkscape:cy="158.9336"
     inkscape:document-units="px"
     inkscape:current-layer="layer1"
     showgrid="false"
     inkscape:window-width="1188"
     inkscape:window-height="1061"
     inkscape:window-x="732"
     inkscape:window-y="19"
     inkscape:window-maximized="0"
     inkscape:grid-bbox="true"
     showguides="false">
    <inkscape:grid
       type="xygrid"
       id="grid1937" />
  </sodipodi:namedview>
  <defs
     id="defs1374" />
  <metadata
     id="metadata1377">
    <rdf:RDF>
      <cc:Work
         rdf:about="">
        <dc:format>image/svg+xml</dc:format>
        <dc:type
           rdf:resource="http://purl.org/dc/dcmitype/StillImage" />
        <dc:title></dc:title>
      </cc:Work>
    </rdf:RDF>
  </metadata>
  <g
     id="layer1"
     inkscape:groupmode="layer"
     inkscape:label="Layer 1">
    <path
       style="fill:#ffffff;stroke:#000000;stroke-width:2.89133858;stroke-linecap:butt;stroke-linejoin:miter;stroke-miterlimit:4;stroke-dasharray:none;stroke-opacity:1;fill-opacity:1"
       d="M 10,246 53.636363,235.09092 179.0909,109.63639 l 10.90908,10.90906 v 10.9091 l 16.36365,-16.36363 -5.45453,-5.45453 -16.36366,-27.272744 43.63637,-43.636371 h 21.81818 V 6.0000002 H 217.27273 V 27.818181 L 173.63636,71.454549 146.36363,55.090911 c -5.45454,-5.454546 -5.45454,-5.454546 -5.45454,-5.454546 l -16.36363,16.363644 h 10.90908 L 146.36363,76.909087 20.90909,202.36363 Z"
       id="path1935"
       inkscape:connector-curvature="0"
       sodipodi:nodetypes="ccccccccccccccccccccc" />
    <path
       style="opacity:0;fill:#ffffff;fill-opacity:1;stroke:#000000;stroke-width:2.89133859;stroke-linecap:round;stroke-miterlimit:4;stroke-dasharray:none;stroke-opacity:1"
       d="m 12.660899,242.80515 c 0.01044,-0.29168 2.214094,-9.25638 4.897006,-19.92154 l 4.878021,-19.39123 62.985245,-62.98819 c 34.641889,-34.64351 62.985249,-63.312755 62.985249,-63.70944 0,-0.396685 -2.63178,-3.339354 -5.84841,-6.539265 l -5.8484,-5.81802 h -3.8587 -3.8587 l 5.97032,-6.001499 5.97032,-6.0015 2.14579,2.052554 c 1.18019,1.128905 8.62592,5.938949 16.54608,10.688988 L 174.025,73.812441 196.57105,51.274651 219.1171,28.73686 V 18.302892 7.868923 h 14.49568 14.49569 V 22.364612 36.860301 H 237.6745 227.24054 l -22.5378,22.546048 -22.53779,22.546045 8.63644,14.400287 c 4.75004,7.920159 9.56008,15.365879 10.68898,16.546069 l 2.05256,2.1458 -6.0015,5.97032 -6.0015,5.97032 v -3.88909 -3.88908 l -5.8484,-5.81802 c -3.21662,-3.19991 -6.15929,-5.81802 -6.53926,-5.81802 -0.37998,0 -29.03555,28.34336 -63.67906,62.98525 l -62.988197,62.98524 -19.391219,4.87802 c -20.956941,5.27189 -20.460807,5.1654 -20.432895,4.38566 z"
       id="path1997"
       inkscape:connector-curvature="0" />
    <path
       style="opacity:0;fill:#ffffff;fill-opacity:1;stroke:#000000;stroke-width:2.89133859;stroke-linecap:round;stroke-miterlimit:4;stroke-dasharray:none;stroke-opacity:1"
       d="m 12.660899,242.80515 c 0.01044,-0.29168 2.214094,-9.25638 4.897006,-19.92154 l 4.878021,-19.39123 62.985245,-62.98819 c 34.641889,-34.64351 62.985249,-63.312755 62.985249,-63.70944 0,-0.396685 -2.63178,-3.339354 -5.84841,-6.539265 l -5.8484,-5.81802 h -3.8587 -3.8587 l 5.97032,-6.001499 5.97032,-6.0015 2.14579,2.052554 c 1.18019,1.128905 8.62592,5.938949 16.54608,10.688988 L 174.025,73.812441 196.57105,51.274651 219.1171,28.73686 V 18.302892 7.868923 h 14.49568 14.49569 V 22.364612 36.860301 H 237.6745 227.24054 l -22.5378,22.546048 -22.53779,22.546045 8.63644,14.400287 c 4.75004,7.920159 9.56008,15.365879 10.68898,16.546069 l 2.05256,2.1458 -6.0015,5.97032 -6.0015,5.97032 v -3.88909 -3.88908 l -5.8484,-5.81802 c -3.21662,-3.19991 -6.15929,-5.81802 -6.53926,-5.81802 -0.37998,0 -29.03555,28.34336 -63.67906,62.98525 l -62.988197,62.98524 -19.391219,4.87802 c -20.956941,5.27189 -20.460807,5.1654 -20.432895,4.38566 z"
       id="path1999"
       inkscape:connector-curvature="0" />
    <path
       style="opacity:0;fill:#ffffff;fill-opacity:1;stroke:#000000;stroke-width:2.89133859;stroke-linecap:round;stroke-miterlimit:4;stroke-dasharray:none;stroke-opacity:1"
       d="m 12.660899,242.80515 c 0.01044,-0.29168 2.214094,-9.25638 4.897006,-19.92154 l 4.878021,-19.39123 62.985245,-62.98819 c 34.641889,-34.64351 62.985249,-63.312755 62.985249,-63.70944 0,-0.396685 -2.63178,-3.339354 -5.84841,-6.539265 l -5.8484,-5.81802 h -3.8587 -3.8587 l 5.97032,-6.001499 5.97032,-6.0015 2.14579,2.052554 c 1.18019,1.128905 8.62592,5.938949 16.54608,10.688988 L 174.025,73.812441 196.57105,51.274651 219.1171,28.73686 V 18.302892 7.868923 h 14.49568 14.49569 V 22.364612 36.860301 H 237.6745 227.24054 l -22.5378,22.546048 -22.53779,22.546045 8.63644,14.400287 c 4.75004,7.920159 9.56008,15.365879 10.68898,16.546069 l 2.05256,2.1458 -6.0015,5.97032 -6.0015,5.97032 v -3.88909 -3.88908 l -5.8484,-5.81802 c -3.21662,-3.19991 -6.15929,-5.81802 -6.53926,-5.81802 -0.37998,0 -29.03555,28.34336 -63.67906,62.98525 l -62.988197,62.98524 -19.391219,4.87802 c -20.956941,5.27189 -20.460807,5.1654 -20.432895,4.38566 z"
       id="path2001"
       inkscape:connector-curvature="0" />
    <path
       style="opacity:0;fill:#ffffff;fill-opacity:1;stroke:#000000;stroke-width:2.89133859;stroke-linecap:round;stroke-miterlimit:4;stroke-dasharray:none;stroke-opacity:1"
       d="m 12.660899,242.80515 c 0.01044,-0.29168 2.214094,-9.25638 4.897006,-19.92154 l 4.878021,-19.39123 62.985245,-62.98819 c 34.641889,-34.64351 62.985249,-63.312755 62.985249,-63.70944 0,-0.396685 -2.63178,-3.339354 -5.84841,-6.539265 l -5.8484,-5.81802 h -3.8587 -3.8587 l 5.97032,-6.001499 5.97032,-6.0015 2.14579,2.052554 c 1.18019,1.128905 8.62592,5.938949 16.54608,10.688988 L 174.025,73.812441 196.57105,51.274651 219.1171,28.73686 V 18.302892 7.868923 h 14.49568 14.49569 V 22.364612 36.860301 H 237.6745 227.24054 l -22.5378,22.546048 -22.53779,22.546045 8.63644,14.400287 c 4.75004,7.920159 9.56008,15.365879 10.68898,16.546069 l 2.05256,2.1458 -6.0015,5.97032 -6.0015,5.97032 v -3.88909 -3.88908 l -5.8484,-5.81802 c -3.21662,-3.19991 -6.15929,-5.81802 -6.53926,-5.81802 -0.37998,0 -29.03555,28.34336 -63.67906,62.98525 l -62.988197,62.98524 -19.391219,4.87802 c -20.956941,5.27189 -20.460807,5.1654 -20.432895,4.38566 z"
       id="path2003"
       inkscape:connector-curvature="0" />
    <path
       style="opacity:0;fill:#ffffff;fill-opacity:1;stroke:#000000;stroke-width:2.89133859;stroke-linecap:round;stroke-miterlimit:4;stroke-dasharray:none;stroke-opacity:1"
       d="m 12.660899,242.80515 c 0.01044,-0.29168 2.214094,-9.25638 4.897006,-19.92154 l 4.878021,-19.39123 62.985245,-62.98819 c 34.641889,-34.64351 62.985249,-63.312755 62.985249,-63.70944 0,-0.396685 -2.63178,-3.339354 -5.84841,-6.539265 l -5.8484,-5.81802 h -3.8587 -3.8587 l 5.97032,-6.001499 5.97032,-6.0015 2.14579,2.052554 c 1.18019,1.128905 8.62592,5.938949 16.54608,10.688988 L 174.025,73.812441 196.57105,51.274651 219.1171,28.73686 V 18.302892 7.868923 h 14.49568 14.49569 V 22.364612 36.860301 H 237.6745 227.24054 l -22.5378,22.546048 -22.53779,22.546045 8.63644,14.400287 c 4.75004,7.920159 9.56008,15.365879 10.68898,16.546069 l 2.05256,2.1458 -6.0015,5.97032 -6.0015,5.97032 v -3.88909 -3.88908 l -5.8484,-5.81802 c -3.21662,-3.19991 -6.15929,-5.81802 -6.53926,-5.81802 -0.37998,0 -29.03555,28.34336 -63.67906,62.98525 l -62.988197,62.98524 -19.391219,4.87802 c -20.956941,5.27189 -20.460807,5.1654 -20.432895,4.38566 z"
       id="path2005"
       inkscape:connector-curvature="0" />
    <path
       style="opacity:0;fill:#ffffff;fill-opacity:1;stroke:#000000;stroke-width:2.89133859;stroke-linecap:round;stroke-miterlimit:4;stroke-dasharray:none;stroke-opacity:1"
       d="m 12.660899,242.80515 c 0.01044,-0.29168 2.214094,-9.25638 4.897006,-19.92154 l 4.878021,-19.39123 62.985245,-62.98819 c 34.641889,-34.64351 62.985249,-63.312755 62.985249,-63.70944 0,-0.396685 -2.63178,-3.339354 -5.84841,-6.539265 l -5.8484,-5.81802 h -3.8587 -3.8587 l 5.97032,-6.001499 5.97032,-6.0015 2.14579,2.052554 c 1.18019,1.128905 8.62592,5.938949 16.54608,10.688988 L 174.025,73.812441 196.57105,51.274651 219.1171,28.73686 V 18.302892 7.868923 h 14.49568 14.49569 V 22.364612 36.860301 H 237.6745 227.24054 l -22.5378,22.546048 -22.53779,22.546045 8.63644,14.400287 c 4.75004,7.920159 9.56008,15.365879 10.68898,16.546069 l 2.05256,2.1458 -6.0015,5.97032 -6.0015,5.97032 v -3.88909 -3.88908 l -5.8484,-5.81802 c -3.21662,-3.19991 -6.15929,-5.81802 -6.53926,-5.81802 -0.37998,0 -29.03555,28.34336 -63.67906,62.98525 l -62.988197,62.98524 -19.391219,4.87802 c -20.956941,5.27189 -20.460807,5.1654 -20.432895,4.38566 z"
       id="path2007"
       inkscape:connector-curvature="0" />
    <path
       style="opacity:0;fill:#ffffff;fill-opacity:1;stroke:#000000;stroke-width:2.89133859;stroke-linecap:round;stroke-miterlimit:4;stroke-dasharray:none;stroke-opacity:1"
       d="m 12.660899,242.80515 c 0.01044,-0.29168 2.214094,-9.25638 4.897006,-19.92154 l 4.878021,-19.39123 62.985245,-62.98819 c 34.641889,-34.64351 62.985249,-63.312755 62.985249,-63.70944 0,-0.396685 -2.63178,-3.339354 -5.84841,-6.539265 l -5.8484,-5.81802 h -3.8587 -3.8587 l 5.97032,-6.001499 5.97032,-6.0015 2.14579,2.052554 c 1.18019,1.128905 8.62592,5.938949 16.54608,10.688988 L 174.025,73.812441 196.57105,51.274651 219.1171,28.73686 V 18.302892 7.868923 h 14.49568 14.49569 V 22.364612 36.860301 H 237.6745 227.24054 l -22.5378,22.546048 -22.53779,22.546045 8.63644,14.400287 c 4.75004,7.920159 9.56008,15.365879 10.68898,16.546069 l 2.05256,2.1458 -6.0015,5.97032 -6.0015,5.97032 v -3.88909 -3.88908 l -5.8484,-5.81802 c -3.21662,-3.19991 -6.15929,-5.81802 -6.53926,-5.81802 -0.37998,0 -29.03555,28.34336 -63.67906,62.98525 l -62.988197,62.98524 -19.391219,4.87802 c -20.956941,5.27189 -20.460807,5.1654 -20.432895,4.38566 z"
       id="path2009"
       inkscape:connector-curvature="0" />
    <path
       style="opacity:0;fill:#ffffff;fill-opacity:1;stroke:#000000;stroke-width:2.89133859;stroke-linecap:round;stroke-miterlimit:4;stroke-dasharray:none;stroke-opacity:1"
       d="m 12.660899,242.80515 c 0.01044,-0.29168 2.214094,-9.25638 4.897006,-19.92154 l 4.878021,-19.39123 62.985245,-62.98819 c 34.641889,-34.64351 62.985249,-63.312755 62.985249,-63.70944 0,-0.396685 -2.63178,-3.339354 -5.84841,-6.539265 l -5.8484,-5.81802 h -3.8587 -3.8587 l 5.97032,-6.001499 5.97032,-6.0015 2.14579,2.052554 c 1.18019,1.128905 8.62592,5.938949 16.54608,10.688988 L 174.025,73.812441 196.57105,51.274651 219.1171,28.73686 V 18.302892 7.868923 h 14.49568 14.49569 V 22.364612 36.860301 H 237.6745 227.24054 l -22.5378,22.546048 -22.53779,22.546045 8.63644,14.400287 c 4.75004,7.920159 9.56008,15.365879 10.68898,16.546069 l 2.05256,2.1458 -6.0015,5.97032 -6.0015,5.97032 v -3.88909 -3.88908 l -5.8484,-5.81802 c -3.21662,-3.19991 -6.15929,-5.81802 -6.53926,-5.81802 -0.37998,0 -29.03555,28.34336 -63.67906,62.98525 l -62.988197,62.98524 -19.391219,4.87802 c -20.956941,5.27189 -20.460807,5.1654 -20.432895,4.38566 z"
       id="path2011"
       inkscape:connector-curvature="0" />
    <path
       style="opacity:0;fill:#ffffff;fill-opacity:1;stroke:#000000;stroke-width:2.89133859;stroke-linecap:round;stroke-miterlimit:4;stroke-dasharray:none;stroke-opacity:1"
       d="m 12.660899,242.80515 c 0.01044,-0.29168 2.214094,-9.25638 4.897006,-19.92154 l 4.878021,-19.39123 62.985245,-62.98819 c 34.641889,-34.64351 62.985249,-63.312755 62.985249,-63.70944 0,-0.396685 -2.63178,-3.339354 -5.84841,-6.539265 l -5.8484,-5.81802 h -3.8587 -3.8587 l 5.97032,-6.001499 5.97032,-6.0015 2.14579,2.052554 c 1.18019,1.128905 8.62592,5.938949 16.54608,10.688988 L 174.025,73.812441 196.57105,51.274651 219.1171,28.73686 V 18.302892 7.868923 h 14.49568 14.49569 V 22.364612 36.860301 H 237.6745 227.24054 l -22.5378,22.546048 -22.53779,22.546045 8.63644,14.400287 c 4.75004,7.920159 9.56008,15.365879 10.68898,16.546069 l 2.05256,2.1458 -6.0015,5.97032 -6.0015,5.97032 v -3.88909 -3.88908 l -5.8484,-5.81802 c -3.21662,-3.19991 -6.15929,-5.81802 -6.53926,-5.81802 -0.37998,0 -29.03555,28.34336 -63.67906,62.98525 l -62.988197,62.98524 -19.391219,4.87802 c -20.956941,5.27189 -20.460807,5.1654 -20.432895,4.38566 z"
       id="path2013"
       inkscape:connector-curvature="0" />
    <path
       style="opacity:0;fill:#ffffff;fill-opacity:1;stroke:#000000;stroke-width:2.89133859;stroke-linecap:round;stroke-miterlimit:4;stroke-dasharray:none;stroke-opacity:1"
       d="m 12.660899,242.80515 c 0.01044,-0.29168 2.214094,-9.25638 4.897006,-19.92154 l 4.878021,-19.39123 62.985245,-62.98819 c 34.641889,-34.64351 62.985249,-63.312755 62.985249,-63.70944 0,-0.396685 -2.63178,-3.339354 -5.84841,-6.539265 l -5.8484,-5.81802 h -3.8587 -3.8587 l 5.97032,-6.001499 5.97032,-6.0015 2.14579,2.052554 c 1.18019,1.128905 8.62592,5.938949 16.54608,10.688988 L 174.025,73.812441 196.57105,51.274651 219.1171,28.73686 V 18.302892 7.868923 h 14.49568 14.49569 V 22.364612 36.860301 H 237.6745 227.24054 l -22.5378,22.546048 -22.53779,22.546045 8.63644,14.400287 c 4.75004,7.920159 9.56008,15.365879 10.68898,16.546069 l 2.05256,2.1458 -6.0015,5.97032 -6.0015,5.97032 v -3.88909 -3.88908 l -5.8484,-5.81802 c -3.21662,-3.19991 -6.15929,-5.81802 -6.53926,-5.81802 -0.37998,0 -29.03555,28.34336 -63.67906,62.98525 l -62.988197,62.98524 -19.391219,4.87802 c -20.956941,5.27189 -20.460807,5.1654 -20.432895,4.38566 z"
       id="path2015"
       inkscape:connector-curvature="0" />
    <path
       style="opacity:0;fill:#ffffff;fill-opacity:1;stroke:#000000;stroke-width:2.89133859;stroke-linecap:round;stroke-miterlimit:4;stroke-dasharray:none;stroke-opacity:1"
       d="m 12.660899,242.80515 c 0.01044,-0.29168 2.214094,-9.25638 4.897006,-19.92154 l 4.878021,-19.39123 62.985245,-62.98819 c 34.641889,-34.64351 62.985249,-63.312755 62.985249,-63.70944 0,-0.396685 -2.63178,-3.339354 -5.84841,-6.539265 l -5.8484,-5.81802 h -3.8587 -3.8587 l 5.97032,-6.001499 5.97032,-6.0015 2.14579,2.052554 c 1.18019,1.128905 8.62592,5.938949 16.54608,10.688988 L 174.025,73.812441 196.57105,51.274651 219.1171,28.73686 V 18.302892 7.868923 h 14.49568 14.49569 V 22.364612 36.860301 H 237.6745 227.24054 l -22.5378,22.546048 -22.53779,22.546045 8.63644,14.400287 c 4.75004,7.920159 9.56008,15.365879 10.68898,16.546069 l 2.05256,2.1458 -6.0015,5.97032 -6.0015,5.97032 v -3.88909 -3.88908 l -5.8484,-5.81802 c -3.21662,-3.19991 -6.15929,-5.81802 -6.53926,-5.81802 -0.37998,0 -29.03555,28.34336 -63.67906,62.98525 l -62.988197,62.98524 -19.391219,4.87802 c -20.956941,5.27189 -20.460807,5.1654 -20.432895,4.38566 z"
       id="path2017"
       inkscape:connector-curvature="0" />
    <path
       style="opacity:0;fill:#ffffff;fill-opacity:1;stroke:#000000;stroke-width:2.89133859;stroke-linecap:round;stroke-miterlimit:4;stroke-dasharray:none;stroke-opacity:1"
       d="m 12.660899,242.80515 c 0.01044,-0.29168 2.214094,-9.25638 4.897006,-19.92154 l 4.878021,-19.39123 62.985245,-62.98819 c 34.641889,-34.64351 62.985249,-63.312755 62.985249,-63.70944 0,-0.396685 -2.63178,-3.339354 -5.84841,-6.539265 l -5.8484,-5.81802 h -3.8587 -3.8587 l 5.97032,-6.001499 5.97032,-6.0015 2.14579,2.052554 c 1.18019,1.128905 8.62592,5.938949 16.54608,10.688988 L 174.025,73.812441 196.57105,51.274651 219.1171,28.73686 V 18.302892 7.868923 h 14.49568 14.49569 V 22.364612 36.860301 H 237.6745 227.24054 l -22.5378,22.546048 -22.53779,22.546045 8.63644,14.400287 c 4.75004,7.920159 9.56008,15.365879 10.68898,16.546069 l 2.05256,2.1458 -6.0015,5.97032 -6.0015,5.97032 v -3.88909 -3.88908 l -5.8484,-5.81802 c -3.21662,-3.19991 -6.15929,-5.81802 -6.53926,-5.81802 -0.37998,0 -29.03555,28.34336 -63.67906,62.98525 l -62.988197,62.98524 -19.391219,4.87802 c -20.956941,5.27189 -20.460807,5.1654 -20.432895,4.38566 z"
       id="path2019"
       inkscape:connector-curvature="0" />
    <path
       style="opacity:0;fill:#ffffff;fill-opacity:1;stroke:#000000;stroke-width:2.89133859;stroke-linecap:round;stroke-miterlimit:4;stroke-dasharray:none;stroke-opacity:1"
       d="m 12.660899,242.80515 c 0.01044,-0.29168 2.214094,-9.25638 4.897006,-19.92154 l 4.878021,-19.39123 62.985245,-62.98819 c 34.641889,-34.64351 62.985249,-63.312755 62.985249,-63.70944 0,-0.396685 -2.63178,-3.339354 -5.84841,-6.539265 l -5.8484,-5.81802 h -3.8587 -3.8587 l 5.97032,-6.001499 5.97032,-6.0015 2.14579,2.052554 c 1.18019,1.128905 8.62592,5.938949 16.54608,10.688988 L 174.025,73.812441 196.57105,51.274651 219.1171,28.73686 V 18.302892 7.868923 h 14.49568 14.49569 V 22.364612 36.860301 H 237.6745 227.24054 l -22.5378,22.546048 -22.53779,22.546045 8.63644,14.400287 c 4.75004,7.920159 9.56008,15.365879 10.68898,16.546069 l 2.05256,2.1458 -6.0015,5.97032 -6.0015,5.97032 v -3.88909 -3.88908 l -5.8484,-5.81802 c -3.21662,-3.19991 -6.15929,-5.81802 -6.53926,-5.81802 -0.37998,0 -29.03555,28.34336 -63.67906,62.98525 l -62.988197,62.98524 -19.391219,4.87802 c -20.956941,5.27189 -20.460807,5.1654 -20.432895,4.38566 z"
       id="path2021"
       inkscape:connector-curvature="0" />
    <path
       style="opacity:0;fill:#ffffff;fill-opacity:1;stroke:#000000;stroke-width:2.89133859;stroke-linecap:round;stroke-miterlimit:4;stroke-dasharray:none;stroke-opacity:1"
       d="m 12.660899,242.80515 c 0.01044,-0.29168 2.214094,-9.25638 4.897006,-19.92154 l 4.878021,-19.39123 62.985245,-62.98819 c 34.641889,-34.64351 62.985249,-63.312755 62.985249,-63.70944 0,-0.396685 -2.63178,-3.339354 -5.84841,-6.539265 l -5.8484,-5.81802 h -3.8587 -3.8587 l 5.97032,-6.001499 5.97032,-6.0015 2.14579,2.052554 c 1.18019,1.128905 8.62592,5.938949 16.54608,10.688988 L 174.025,73.812441 196.57105,51.274651 219.1171,28.73686 V 18.302892 7.868923 h 14.49568 14.49569 V 22.364612 36.860301 H 237.6745 227.24054 l -22.5378,22.546048 -22.53779,22.546045 8.63644,14.400287 c 4.75004,7.920159 9.56008,15.365879 10.68898,16.546069 l 2.05256,2.1458 -6.0015,5.97032 -6.0015,5.97032 v -3.88909 -3.88908 l -5.8484,-5.81802 c -3.21662,-3.19991 -6.15929,-5.81802 -6.53926,-5.81802 -0.37998,0 -29.03555,28.34336 -63.67906,62.98525 l -62.988197,62.98524 -19.391219,4.87802 c -20.956941,5.27189 -20.460807,5.1654 -20.432895,4.38566 z"
       id="path2023"
       inkscape:connector-curvature="0" />
    <path
       style="opacity:0;fill:#ffffff;fill-opacity:1;stroke:#000000;stroke-width:2.89133859;stroke-linecap:round;stroke-miterlimit:4;stroke-dasharray:none;stroke-opacity:1"
       d="m 12.660899,242.80515 c 0.01044,-0.29168 2.214094,-9.25638 4.897006,-19.92154 l 4.878021,-19.39123 62.985245,-62.98819 c 34.641889,-34.64351 62.985249,-63.312755 62.985249,-63.70944 0,-0.396685 -2.63178,-3.339354 -5.84841,-6.539265 l -5.8484,-5.81802 h -3.8587 -3.8587 l 5.97032,-6.001499 5.97032,-6.0015 2.14579,2.052554 c 1.18019,1.128905 8.62592,5.938949 16.54608,10.688988 L 174.025,73.812441 196.57105,51.274651 219.1171,28.73686 V 18.302892 7.868923 h 14.49568 14.49569 V 22.364612 36.860301 H 237.6745 227.24054 l -22.5378,22.546048 -22.53779,22.546045 8.63644,14.400287 c 4.75004,7.920159 9.56008,15.365879 10.68898,16.546069 l 2.05256,2.1458 -6.0015,5.97032 -6.0015,5.97032 v -3.88909 -3.88908 l -5.8484,-5.81802 c -3.21662,-3.19991 -6.15929,-5.81802 -6.53926,-5.81802 -0.37998,0 -29.03555,28.34336 -63.67906,62.98525 l -62.988197,62.98524 -19.391219,4.87802 c -20.956941,5.27189 -20.460807,5.1654 -20.432895,4.38566 z"
       id="path2025"
       inkscape:connector-curvature="0" />
    <path
       style="opacity:0;fill:#ffffff;fill-opacity:1;stroke:#000000;stroke-width:2.89133859;stroke-linecap:round;stroke-miterlimit:4;stroke-dasharray:none;stroke-opacity:1"
       d="m 12.660899,242.80515 c 0.01044,-0.29168 2.214094,-9.25638 4.897006,-19.92154 l 4.878021,-19.39123 62.985245,-62.98819 c 34.641889,-34.64351 62.985249,-63.312755 62.985249,-63.70944 0,-0.396685 -2.63178,-3.339354 -5.84841,-6.539265 l -5.8484,-5.81802 h -3.8587 -3.8587 l 5.97032,-6.001499 5.97032,-6.0015 2.14579,2.052554 c 1.18019,1.128905 8.62592,5.938949 16.54608,10.688988 L 174.025,73.812441 196.57105,51.274651 219.1171,28.73686 V 18.302892 7.868923 h 14.49568 14.49569 V 22.364612 36.860301 H 237.6745 227.24054 l -22.5378,22.546048 -22.53779,22.546045 8.63644,14.400287 c 4.75004,7.920159 9.56008,15.365879 10.68898,16.546069 l 2.05256,2.1458 -6.0015,5.97032 -6.0015,5.97032 v -3.88909 -3.88908 l -5.8484,-5.81802 c -3.21662,-3.19991 -6.15929,-5.81802 -6.53926,-5.81802 -0.37998,0 -29.03555,28.34336 -63.67906,62.98525 l -62.988197,62.98524 -19.391219,4.87802 c -20.956941,5.27189 -20.460807,5.1654 -20.432895,4.38566 z"
       id="path2027"
       inkscape:connector-curvature="0" />
    <path
       style="opacity:0;fill:#ffffff;fill-opacity:1;stroke:#000000;stroke-width:2.89133859;stroke-linecap:round;stroke-miterlimit:4;stroke-dasharray:none;stroke-opacity:1"
       d="m 12.660899,242.80515 c 0.01044,-0.29168 2.214094,-9.25638 4.897006,-19.92154 l 4.878021,-19.39123 62.985245,-62.98819 c 34.641889,-34.64351 62.985249,-63.312755 62.985249,-63.70944 0,-0.396685 -2.63178,-3.339354 -5.84841,-6.539265 l -5.8484,-5.81802 h -3.8587 -3.8587 l 5.97032,-6.001499 5.97032,-6.0015 2.14579,2.052554 c 1.18019,1.128905 8.62592,5.938949 16.54608,10.688988 L 174.025,73.812441 196.57105,51.274651 219.1171,28.73686 V 18.302892 7.868923 h 14.49568 14.49569 V 22.364612 36.860301 H 237.6745 227.24054 l -22.5378,22.546048 -22.53779,22.546045 8.63644,14.400287 c 4.75004,7.920159 9.56008,15.365879 10.68898,16.546069 l 2.05256,2.1458 -6.0015,5.97032 -6.0015,5.97032 v -3.88909 -3.88908 l -5.8484,-5.81802 c -3.21662,-3.19991 -6.15929,-5.81802 -6.53926,-5.81802 -0.37998,0 -29.03555,28.34336 -63.67906,62.98525 l -62.988197,62.98524 -19.391219,4.87802 c -20.956941,5.27189 -20.460807,5.1654 -20.432895,4.38566 z"
       id="path2029"
       inkscape:connector-curvature="0" />
    <path
       style="opacity:0;fill:#ffffff;fill-opacity:1;stroke:#000000;stroke-width:2.89133859;stroke-linecap:round;stroke-miterlimit:4;stroke-dasharray:none;stroke-opacity:1"
       d="m 12.660899,242.80515 c 0.01044,-0.29168 2.214094,-9.25638 4.897006,-19.92154 l 4.878021,-19.39123 62.985245,-62.98819 c 34.641889,-34.64351 62.985249,-63.312755 62.985249,-63.70944 0,-0.396685 -2.63178,-3.339354 -5.84841,-6.539265 l -5.8484,-5.81802 h -3.8587 -3.8587 l 5.97032,-6.001499 5.97032,-6.0015 2.14579,2.052554 c 1.18019,1.128905 8.62592,5.938949 16.54608,10.688988 L 174.025,73.812441 196.57105,51.274651 219.1171,28.73686 V 18.302892 7.868923 h 14.49568 14.49569 V 22.364612 36.860301 H 237.6745 227.24054 l -22.5378,22.546048 -22.53779,22.546045 8.63644,14.400287 c 4.75004,7.920159 9.56008,15.365879 10.68898,16.546069 l 2.05256,2.1458 -6.0015,5.97032 -6.0015,5.97032 v -3.88909 -3.88908 l -5.8484,-5.81802 c -3.21662,-3.19991 -6.15929,-5.81802 -6.53926,-5.81802 -0.37998,0 -29.03555,28.34336 -63.67906,62.98525 l -62.988197,62.98524 -19.391219,4.87802 c -20.956941,5.27189 -20.460807,5.1654 -20.432895,4.38566 z"
       id="path2031"
       inkscape:connector-curvature="0" />
    <path
       style="opacity:0;fill:#ffffff;fill-opacity:1;stroke:#000000;stroke-width:2.89133859;stroke-linecap:round;stroke-miterlimit:4;stroke-dasharray:none;stroke-opacity:1"
       d="m 64.696076,184.79132 v -24.03118 l 41.905984,-41.90612 41.90598,-41.906124 -6.24926,-6.250199 -6.24927,-6.2502 h -3.87531 -3.87532 l 6.34306,-6.343056 6.34306,-6.343055 2.34429,2.334974 2.34429,2.334975 14.10908,8.461264 14.10909,8.461265 12.79716,-12.796705 12.79717,-12.796704 v 8.811926 8.811928 l -8.39047,8.391156 -8.39047,8.391156 8.39047,13.984671 8.39047,13.984668 v 4.87525 4.87525 l -4,3.99854 -4,3.99853 v -3.99974 -3.99974 l -6.18771,-6.18676 -6.18771,-6.18676 -50.6561,50.65598 -50.656099,50.65599 h -6.531193 -6.531192 z"
       id="path2033"
       inkscape:connector-curvature="0" />
    <path
       style="opacity:0;fill:#ffffff;fill-opacity:1;stroke:#000000;stroke-width:2.89133859;stroke-linecap:round;stroke-miterlimit:4;stroke-dasharray:none;stroke-opacity:1"
       d="m 64.696076,184.79132 v -24.03118 l 41.905984,-41.90612 41.90598,-41.906124 -6.24926,-6.250199 -6.24927,-6.2502 h -3.87531 -3.87532 l 6.34306,-6.343056 6.34306,-6.343055 2.34429,2.334974 2.34429,2.334975 14.10908,8.461264 14.10909,8.461265 12.79716,-12.796705 12.79717,-12.796704 v 8.811926 8.811928 l -8.39047,8.391156 -8.39047,8.391156 8.39047,13.984671 8.39047,13.984668 v 4.87525 4.87525 l -4,3.99854 -4,3.99853 v -3.99974 -3.99974 l -6.18771,-6.18676 -6.18771,-6.18676 -50.6561,50.65598 -50.656099,50.65599 h -6.531193 -6.531192 z"
       id="path2035"
       inkscape:connector-curvature="0" />
    <path
       style="opacity:0;fill:#ffffff;fill-opacity:1;stroke:#000000;stroke-width:2.89133859;stroke-linecap:round;stroke-miterlimit:4;stroke-dasharray:none;stroke-opacity:1"
       d="m 64.696076,184.79132 v -24.03118 l 41.905984,-41.90612 41.90598,-41.906124 -6.24926,-6.250199 -6.24927,-6.2502 h -3.87531 -3.87532 l 6.34306,-6.343056 6.34306,-6.343055 2.34429,2.334974 2.34429,2.334975 14.10908,8.461264 14.10909,8.461265 12.79716,-12.796705 12.79717,-12.796704 v 8.811926 8.811928 l -8.39047,8.391156 -8.39047,8.391156 8.39047,13.984671 8.39047,13.984668 v 4.87525 4.87525 l -4,3.99854 -4,3.99853 v -3.99974 -3.99974 l -6.18771,-6.18676 -6.18771,-6.18676 -50.6561,50.65598 -50.656099,50.65599 h -6.531193 -6.531192 z"
       id="path2037"
       inkscape:connector-curvature="0" />
    <path
       style="opacity:0;fill:#ffffff;fill-opacity:1;stroke:#000000;stroke-width:2.89133859;stroke-linecap:round;stroke-miterlimit:4;stroke-dasharray:none;stroke-opacity:1"
       d="m 64.696076,184.79132 v -24.03118 l 41.905984,-41.90612 41.90598,-41.906124 -6.24926,-6.250199 -6.24927,-6.2502 h -3.87531 -3.87532 l 6.34306,-6.343056 6.34306,-6.343055 2.34429,2.334974 2.34429,2.334975 14.10908,8.461264 14.10909,8.461265 12.79716,-12.796705 12.79717,-12.796704 v 8.811926 8.811928 l -8.39047,8.391156 -8.39047,8.391156 8.39047,13.984671 8.39047,13.984668 v 4.87525 4.87525 l -4,3.99854 -4,3.99853 v -3.99974 -3.99974 l -6.18771,-6.18676 -6.18771,-6.18676 -50.6561,50.65598 -50.656099,50.65599 h -6.531193 -6.531192 z"
       id="path2039"
       inkscape:connector-curvature="0" />
    <path
       style="opacity:0;fill:#ffffff;fill-opacity:1;stroke:#000000;stroke-width:2.89133859;stroke-linecap:round;stroke-miterlimit:4;stroke-dasharray:none;stroke-opacity:1"
       d="m 64.696076,184.79132 v -24.03118 l 41.905984,-41.90612 41.90598,-41.906124 -6.24926,-6.250199 -6.24927,-6.2502 h -3.87531 -3.87532 l 6.34306,-6.343056 6.34306,-6.343055 2.34429,2.334974 2.34429,2.334975 14.10908,8.461264 14.10909,8.461265 12.79716,-12.796705 12.79717,-12.796704 v 8.811926 8.811928 l -8.39047,8.391156 -8.39047,8.391156 8.39047,13.984671 8.39047,13.984668 v 4.87525 4.87525 l -4,3.99854 -4,3.99853 v -3.99974 -3.99974 l -6.18771,-6.18676 -6.18771,-6.18676 -50.6561,50.65598 -50.656099,50.65599 h -6.531193 -6.531192 z"
       id="path2041"
       inkscape:connector-curvature="0" />
  </g>
</svg>
